<mxfile host="app.diagrams.net" agent="Mozilla/5.0 (Windows NT 10.0; Win64; x64) AppleWebKit/537.36 (KHTML, like Gecko) Chrome/131.0.0.0 Safari/537.36 Edg/131.0.0.0" version="24.8.6">
  <diagram name="Page-1" id="1UI3eBbX3OOugqC_eIK9">
    <mxGraphModel dx="1042" dy="565" grid="1" gridSize="10" guides="1" tooltips="1" connect="1" arrows="1" fold="1" page="1" pageScale="1" pageWidth="850" pageHeight="1100" math="0" shadow="0">
      <root>
        <mxCell id="0" />
        <mxCell id="1" parent="0" />
        <mxCell id="cjw5p2uJ5BD0bzxEdcK7-13" style="edgeStyle=orthogonalEdgeStyle;rounded=0;orthogonalLoop=1;jettySize=auto;html=1;exitX=0.5;exitY=1;exitDx=0;exitDy=0;entryX=0.5;entryY=0;entryDx=0;entryDy=0;" edge="1" parent="1" source="cjw5p2uJ5BD0bzxEdcK7-2" target="cjw5p2uJ5BD0bzxEdcK7-3">
          <mxGeometry relative="1" as="geometry" />
        </mxCell>
        <mxCell id="cjw5p2uJ5BD0bzxEdcK7-2" value="Start" style="ellipse;whiteSpace=wrap;html=1;" vertex="1" parent="1">
          <mxGeometry x="365" y="10" width="120" height="80" as="geometry" />
        </mxCell>
        <mxCell id="cjw5p2uJ5BD0bzxEdcK7-12" style="edgeStyle=orthogonalEdgeStyle;rounded=0;orthogonalLoop=1;jettySize=auto;html=1;exitX=0.5;exitY=1;exitDx=0;exitDy=0;" edge="1" parent="1" source="cjw5p2uJ5BD0bzxEdcK7-3" target="cjw5p2uJ5BD0bzxEdcK7-4">
          <mxGeometry relative="1" as="geometry" />
        </mxCell>
        <mxCell id="cjw5p2uJ5BD0bzxEdcK7-3" value="Nhập a," style="shape=parallelogram;perimeter=parallelogramPerimeter;whiteSpace=wrap;html=1;fixedSize=1;" vertex="1" parent="1">
          <mxGeometry x="365" y="130" width="120" height="60" as="geometry" />
        </mxCell>
        <mxCell id="cjw5p2uJ5BD0bzxEdcK7-23" style="edgeStyle=orthogonalEdgeStyle;rounded=0;orthogonalLoop=1;jettySize=auto;html=1;exitX=0.5;exitY=1;exitDx=0;exitDy=0;entryX=0.5;entryY=0;entryDx=0;entryDy=0;" edge="1" parent="1" source="cjw5p2uJ5BD0bzxEdcK7-4" target="cjw5p2uJ5BD0bzxEdcK7-21">
          <mxGeometry relative="1" as="geometry" />
        </mxCell>
        <mxCell id="cjw5p2uJ5BD0bzxEdcK7-4" value="Tính a + b = ?" style="rhombus;whiteSpace=wrap;html=1;" vertex="1" parent="1">
          <mxGeometry x="355" y="240" width="140" height="80" as="geometry" />
        </mxCell>
        <mxCell id="cjw5p2uJ5BD0bzxEdcK7-16" value="End" style="ellipse;whiteSpace=wrap;html=1;" vertex="1" parent="1">
          <mxGeometry x="365" y="440" width="120" height="80" as="geometry" />
        </mxCell>
        <mxCell id="cjw5p2uJ5BD0bzxEdcK7-24" style="edgeStyle=orthogonalEdgeStyle;rounded=0;orthogonalLoop=1;jettySize=auto;html=1;exitX=0.5;exitY=1;exitDx=0;exitDy=0;entryX=0.5;entryY=0;entryDx=0;entryDy=0;" edge="1" parent="1" source="cjw5p2uJ5BD0bzxEdcK7-21" target="cjw5p2uJ5BD0bzxEdcK7-16">
          <mxGeometry relative="1" as="geometry" />
        </mxCell>
        <mxCell id="cjw5p2uJ5BD0bzxEdcK7-21" value="Kết quả a + b" style="shape=parallelogram;perimeter=parallelogramPerimeter;whiteSpace=wrap;html=1;fixedSize=1;" vertex="1" parent="1">
          <mxGeometry x="365" y="350" width="120" height="60" as="geometry" />
        </mxCell>
      </root>
    </mxGraphModel>
  </diagram>
</mxfile>
